<svg width="557.2px" height="119.1px" xmlns="http://www.w3.org/2000/svg" viewBox="-28.579998779296886 15.459991455078125 557.1599975585938 119.08001708984375" style="background: none" preserveAspectRatio="xMidYMid"><defs><linearGradient id="editing-gradient-gradient" x1="0.883022221559489" x2="0.11697777844051105" y1="0.17860619515673026" y2="0.8213938048432697" gradientUnits="objectBoundingBox"><stop offset="0" stop-color="#ff4800"></stop><stop offset="1" stop-color="#4b00ff"></stop></linearGradient></defs><g><g transform="matrix(1.4,0,0,1.8,21.7,178.8)"><path d="M -19.4 -82.5 L -19.4 -82.5 L -19.4 -82.5 Q -20.1 -78 -20.1 -65.7 L -20.1 -65.7 L -20.1 -65.7 Q -20.1 -53.4 -19.3 -47.6 L -19.3 -47.6 L -19.3 -47.6 Q -16.1 -47.3 -12.7 -46.5 L -12.7 -46.5 L -12.9 -45 L -12.9 -45 Q -17.3 -45.5 -22.5 -45.5 L -22.5 -45.5 L -22.5 -45.5 Q -27.7 -45.5 -30.9 -45 L -30.9 -45 L -31.1 -46.5 L -31.1 -46.5 Q -28.4 -47.4 -25.4 -47.8 L -25.4 -47.8 L -25.4 -47.8 Q -24.7 -52.7 -24.7 -63.3 L -24.7 -63.3 L -24.7 -66.8 L -24.7 -66.8 Q -24.7 -76.5 -25.5 -82.3 L -25.5 -82.3 L -25.5 -82.3 Q -28.5 -82.7 -31.2 -83.5 L -31.2 -83.5 L -31 -85 L -31 -85 Q -27.8 -84.6 -22.6 -84.6 L -22.6 -84.6 L -22.6 -84.6 Q -17.4 -84.6 -13 -85 L -13 -85 L -12.8 -83.6 L -12.8 -83.6 Q -16.2 -82.8 -19.4 -82.5 Z M 5.8 -47.3 L 5.8 -48.9 L 5.8 -48.9 Q 5.8 -52.6 4 -60 L 4 -60 L 4 -60 Q 2.1 -67.4 -0.2 -74.4 L -0.2 -74.4 L -0.4 -74.3 L -1.9 -63.1 L -1.9 -63.1 Q -2.9 -56.2 -2.9 -50.7 L -2.9 -50.7 L -2.9 -50.7 Q -2.9 -47.4 -0.8 -46.2 L -0.8 -46.2 L -1 -45.2 L -1 -45.2 Q -2.8 -45.5 -5.7 -45.5 L -5.7 -45.5 L -5.7 -45.5 Q -8.6 -45.5 -12.1 -45 L -12.1 -45 L -12.3 -46.6 L -12.3 -46.6 Q -10.3 -47.2 -8.5 -47.5 L -8.5 -47.5 L -2.9 -74.9 L -2.9 -74.9 Q -6 -75.4 -7.5 -75.9 L -7.5 -75.9 L -7.4 -77.4 L -7.4 -77.4 Q -3 -76.8 0.7 -76.8 L 0.7 -76.8 L 0.7 -76.8 Q 4.3 -76.8 6.4 -77.2 L 6.4 -77.2 L 6.5 -76.2 L 6.5 -76.2 Q 4.9 -75.7 4.9 -74.8 L 4.9 -74.8 L 4.9 -74.8 Q 4.9 -73.5 8.6 -59.5 L 8.6 -59.5 L 9.9 -55 L 10.3 -55.2 L 10.3 -55.2 Q 10.3 -56.7 15.8 -74.7 L 15.8 -74.7 L 15.8 -74.7 Q 15.8 -75.7 14.2 -76.2 L 14.2 -76.2 L 14.3 -77.2 L 14.3 -77.2 Q 16.3 -76.8 20.1 -76.8 L 20.1 -76.8 L 20.1 -76.8 Q 23.8 -76.8 28.1 -77.4 L 28.1 -77.4 L 28.3 -75.9 L 28.3 -75.9 Q 26.7 -75.4 24.1 -75 L 24.1 -75 L 24.1 -75 Q 24 -73.5 24 -70.7 L 24 -70.7 L 24 -70.7 Q 24 -67.9 24.7 -59.3 L 24.7 -59.3 L 24.7 -59.3 Q 25.5 -50.7 26.2 -47.4 L 26.2 -47.4 L 26.2 -47.4 Q 28.4 -47.1 30.7 -46.6 L 30.7 -46.6 L 30.6 -45.1 L 30.6 -45.1 Q 27.4 -45.5 23.6 -45.5 L 23.6 -45.5 L 23.6 -45.5 Q 19.8 -45.5 16.8 -45 L 16.8 -45 L 16.5 -46.6 L 16.5 -46.6 Q 18.5 -47.2 20.8 -47.5 L 20.8 -47.5 L 20.8 -47.5 Q 20.6 -61.6 18.9 -74.2 L 18.9 -74.2 L 18.7 -74.2 L 18.7 -74.2 Q 12.5 -55.9 12.1 -50.5 L 12.1 -50.5 L 12.1 -50.5 Q 10.8 -50.1 9.1 -49 L 9.1 -49 L 9.1 -49 Q 7.5 -47.9 6.6 -46.8 L 6.6 -46.8 L 5.8 -47.3 Z M 37.5 -75.9 L 37.6 -77.4 L 37.6 -77.4 Q 43.3 -76.8 49 -76.8 L 49 -76.8 L 49 -76.8 Q 54.8 -76.8 60.4 -77.4 L 60.4 -77.4 L 60.6 -75.9 L 60.6 -75.9 Q 58.8 -75.1 56.9 -74.8 L 56.9 -74.8 L 56.9 -74.8 Q 56.2 -69.9 56.2 -61.1 L 56.2 -61.1 L 56.2 -61.1 Q 56.2 -52.3 56.9 -47.4 L 56.9 -47.4 L 56.9 -47.4 Q 58.1 -47.2 61.3 -46.5 L 61.3 -46.5 L 61.1 -45 L 61.1 -45 Q 58.2 -45.5 53.7 -45.5 L 53.7 -45.5 L 53.7 -45.5 Q 49.2 -45.5 46.8 -45 L 46.8 -45 L 46.6 -46.6 L 46.6 -46.6 Q 48.6 -47.2 51.2 -47.5 L 51.2 -47.5 L 51.2 -47.5 Q 51.6 -51 51.7 -57.2 L 51.7 -57.2 L 51.7 -57.2 Q 48.9 -57.5 46.1 -57.5 L 46.1 -57.5 L 46.1 -57.5 Q 43.3 -57.5 41.2 -57.2 L 41.2 -57.2 L 41.2 -57.2 Q 40 -52.3 40 -50.4 L 40 -50.4 L 40 -50.4 Q 40 -47.4 42.1 -46.2 L 42.1 -46.2 L 41.8 -45.2 L 41.8 -45.2 Q 40.5 -45.5 36.6 -45.5 L 36.6 -45.5 L 36.6 -45.5 Q 32.8 -45.5 30.6 -45 L 30.6 -45 L 30.3 -46.6 L 30.3 -46.6 Q 31.8 -47.1 34.3 -47.5 L 34.3 -47.5 L 42.1 -74.9 L 42.1 -74.9 Q 39.4 -75.3 37.5 -75.9 L 37.5 -75.9 Z M 45.2 -74.4 L 41.7 -60 L 41.7 -60 Q 44 -59.7 46.9 -59.7 L 46.9 -59.7 L 46.9 -59.7 Q 49.7 -59.7 51.7 -60 L 51.7 -60 L 51.7 -60 Q 51.7 -71.1 51.3 -74.4 L 51.3 -74.4 L 51.3 -74.4 Q 49.2 -74.5 48.2 -74.5 L 48.2 -74.5 L 48.2 -74.5 Q 47.2 -74.5 45.2 -74.4 L 45.2 -74.4 Z M 79.4 -49 L 79.4 -49 L 79.4 -49 Q 82 -49 84.5 -50.5 L 84.5 -50.5 L 84.2 -56.9 L 84.2 -56.9 Q 82.5 -57.4 80.1 -57.9 L 80.1 -57.9 L 80.3 -59.1 L 80.3 -59.1 Q 81.7 -59 82.4 -59 L 82.4 -59 L 82.4 -59 Q 86.5 -59 89.9 -61.2 L 89.9 -61.2 L 90.5 -60.1 L 90.5 -60.1 Q 89.8 -59.5 89.2 -58.8 L 89.2 -58.8 L 89.2 -58.8 Q 88.3 -50.6 88.1 -45.3 L 88.1 -45.3 L 86.8 -45.3 L 86.8 -45.3 Q 86.4 -47.5 85.4 -49 L 85.4 -49 L 85.4 -49 Q 81.9 -45.9 78.4 -44.8 L 78.4 -44.8 L 78.4 -44.8 Q 72.6 -44.8 69.3 -48.5 L 69.3 -48.5 L 69.3 -48.5 Q 66 -52.2 66 -58.4 L 66 -58.4 L 66 -58.4 Q 66 -64.7 69.9 -70.2 L 69.9 -70.2 L 69.9 -70.2 Q 73.8 -75.7 79.8 -77.5 L 79.8 -77.5 L 79.8 -77.5 Q 84.2 -77.5 89.7 -76.6 L 89.7 -76.6 L 89.7 -75.3 L 89.7 -75.3 Q 88.5 -75.3 87.5 -74.8 L 87.5 -74.8 L 87.5 -74.8 Q 86.4 -72.1 86 -68.4 L 86 -68.4 L 84.5 -68.4 L 84.5 -68.4 Q 84 -70.5 84 -72.6 L 84 -72.6 L 84 -72.6 Q 81.7 -73.8 78.6 -73.8 L 78.6 -73.8 L 78.6 -73.8 Q 75.5 -73.8 73.5 -72.1 L 73.5 -72.1 L 73.5 -72.1 Q 71.1 -67.7 71.1 -61.7 L 71.1 -61.7 L 71.1 -61.7 Q 71.1 -55.8 72.8 -52.4 L 72.8 -52.4 L 72.8 -52.4 Q 74.6 -49 79.4 -49 Z M 100.6 -60.3 L 100.6 -60.3 Q 100.8 -55 102.6 -52 L 102.6 -52 L 102.6 -52 Q 104.4 -49 108.7 -49 L 108.7 -49 L 108.7 -49 Q 113.1 -49 116.7 -52.6 L 116.7 -52.6 L 117.6 -51.8 L 117.6 -51.8 Q 113.5 -46.7 107.9 -44.8 L 107.9 -44.8 L 107.9 -44.8 Q 102.1 -44.8 98.8 -48.5 L 98.8 -48.5 L 98.8 -48.5 Q 95.5 -52.2 95.5 -58.4 L 95.5 -58.4 L 95.5 -58.4 Q 95.5 -64.7 99.4 -70.2 L 99.4 -70.2 L 99.4 -70.2 Q 103.3 -75.7 109.3 -77.5 L 109.3 -77.5 L 109.3 -77.5 Q 113.7 -77.5 119.2 -76.6 L 119.2 -76.6 L 119.2 -75.3 L 119.2 -75.3 Q 118 -75.3 117 -74.8 L 117 -74.8 L 117 -74.8 Q 115.9 -72.1 115.5 -68.4 L 115.5 -68.4 L 114 -68.4 L 114 -68.4 Q 113.5 -70.5 113.5 -72.6 L 113.5 -72.6 L 113.5 -72.6 Q 111.3 -73.8 108.1 -73.8 L 108.1 -73.8 L 108.1 -73.8 Q 105 -73.8 103 -72.1 L 103 -72.1 L 103 -72.1 Q 100.9 -68.4 100.6 -63.2 L 100.6 -63.2 L 100.6 -63.2 Q 103.2 -62.8 106 -62.8 L 106 -62.8 L 106 -62.8 Q 111 -62.8 112 -64.9 L 112 -64.9 L 113.3 -64.7 L 113.3 -64.7 Q 112.8 -62.9 112.8 -61.2 L 112.8 -61.2 L 112.8 -61.2 Q 112.8 -59.4 113.2 -56.9 L 113.2 -56.9 L 111.7 -56.7 L 111.7 -56.7 Q 111.1 -58.5 110.8 -60.4 L 110.8 -60.4 L 110.8 -60.4 Q 108.4 -60.6 106 -60.6 L 106 -60.6 L 106 -60.6 Q 103.6 -60.6 100.6 -60.3 L 100.6 -60.3 Z M 126.3 -50.1 L 126.3 -50.1 Q 129.1 -48.9 131.8 -48.9 L 131.8 -48.9 L 131.8 -48.9 Q 134.5 -48.9 136.1 -50.2 L 136.1 -50.2 L 136.1 -50.2 Q 137.7 -51.4 137.7 -53.8 L 137.7 -53.8 L 137.7 -53.8 Q 137.7 -56.2 130.9 -59.7 L 130.9 -59.7 L 130.9 -59.7 Q 128.4 -61 126.2 -62.9 L 126.2 -62.9 L 126.2 -62.9 Q 124.1 -64.8 124.1 -66.7 L 124.1 -66.7 L 124.1 -66.7 Q 124.1 -69.9 127.5 -73.1 L 127.5 -73.1 L 127.5 -73.1 Q 130.8 -76.3 134.4 -77.5 L 134.4 -77.5 L 134.4 -77.5 Q 138.8 -77.5 142.4 -76.6 L 142.4 -76.6 L 142.4 -75.5 L 142.4 -75.5 Q 139.9 -73 139.6 -68.6 L 139.6 -68.6 L 138.1 -68.6 L 138.1 -68.6 Q 138.1 -70.3 137.8 -72.8 L 137.8 -72.8 L 137.8 -72.8 Q 135.7 -73.8 133.3 -73.8 L 133.3 -73.8 L 133.3 -73.8 Q 130.9 -73.8 129.3 -72.7 L 129.3 -72.7 L 129.3 -72.7 Q 127.7 -71.7 127.7 -69.7 L 127.7 -69.7 L 127.7 -69.7 Q 127.7 -68.3 129.8 -66.7 L 129.8 -66.7 L 129.8 -66.7 Q 132 -65.1 134.5 -63.8 L 134.5 -63.8 L 134.5 -63.8 Q 137 -62.5 139.1 -60.7 L 139.1 -60.7 L 139.1 -60.7 Q 141.3 -58.8 141.3 -57 L 141.3 -57 L 141.3 -57 Q 141.3 -53.4 138.1 -49.8 L 138.1 -49.8 L 138.1 -49.8 Q 134.9 -46.2 131.1 -44.8 L 131.1 -44.8 L 131.1 -44.8 Q 127.3 -44.8 124 -45.7 L 124 -45.7 L 124 -45.7 Q 123 -45.3 122 -44.3 L 122 -44.3 L 120.9 -45.1 L 120.9 -45.1 Q 124.3 -48.7 124.6 -54.1 L 124.6 -54.1 L 126.1 -54.1 L 126.1 -54.1 Q 126.1 -52 126.3 -50.1 L 126.3 -50.1 Z M 174 -49.5 L 174 -49.5 L 174 -49.5 Q 176.8 -49.5 179.9 -51.1 L 179.9 -51.1 L 179.9 -56.1 L 179.9 -56.1 Q 179.9 -57.4 179.7 -60.1 L 179.7 -60.1 L 179.7 -60.1 Q 177.6 -60.7 174.2 -61.3 L 174.2 -61.3 L 174.4 -62.5 L 174.4 -62.5 Q 175.8 -62.4 177 -62.4 L 177 -62.4 L 177 -62.4 Q 182.3 -62.4 186.7 -65.3 L 186.7 -65.3 L 187.2 -64.2 L 187.2 -64.2 Q 185.8 -63.1 185.1 -62.1 L 185.1 -62.1 L 185.1 -62.1 Q 183.9 -51.6 183.9 -42.6 L 183.9 -42.6 L 183.9 -42.6 Q 182.1 -39.4 178.1 -36.4 L 178.1 -36.4 L 178.1 -36.4 Q 174.1 -33.5 170.8 -33.5 L 170.8 -33.5 L 170.8 -33.5 Q 169.9 -33.5 169.3 -34 L 169.3 -34 L 169.3 -34 Q 168.7 -34.5 168.7 -35.3 L 168.7 -35.3 L 168.7 -35.3 Q 170.5 -36.6 171.7 -38.4 L 171.7 -38.4 L 172.1 -38.4 L 172.1 -38.4 Q 173.4 -37.4 175.2 -37.4 L 175.2 -37.4 L 175.2 -37.4 Q 176.9 -37.4 177.6 -37.8 L 177.6 -37.8 L 177.6 -37.8 Q 180 -41.1 180 -48.6 L 180 -48.6 L 180 -48.6 Q 176.7 -46 172.7 -44.6 L 172.7 -44.6 L 172.7 -44.6 Q 165.5 -44.6 161.9 -49.1 L 161.9 -49.1 L 161.9 -49.1 Q 158.2 -53.7 158.2 -61.7 L 158.2 -61.7 L 158.2 -61.7 Q 158.2 -69.7 162.7 -76.5 L 162.7 -76.5 L 162.7 -76.5 Q 167.1 -83.4 174.5 -85.5 L 174.5 -85.5 L 174.5 -85.5 Q 180.7 -85.5 187 -84.3 L 187 -84.3 L 187 -83 L 187 -83 Q 185.5 -83 184.1 -82.5 L 184.1 -82.5 L 184.1 -82.5 Q 182.5 -78.7 182.1 -74 L 182.1 -74 L 180.6 -74 L 180.6 -74 Q 180.1 -76.5 180.1 -79.6 L 180.1 -79.6 L 180.1 -79.6 Q 177.3 -81.1 173.2 -81.1 L 173.2 -81.1 L 173.2 -81.1 Q 169.1 -81.1 166.6 -79.1 L 166.6 -79.1 L 166.6 -79.1 Q 163.6 -73.9 163.6 -65.8 L 163.6 -65.8 L 163.6 -65.8 Q 163.6 -49.5 174 -49.5 Z M 195.4 -75.9 L 195.6 -77.4 L 195.6 -77.4 Q 201.3 -76.8 207 -76.8 L 207 -76.8 L 207 -76.8 Q 212.8 -76.8 218.4 -77.4 L 218.4 -77.4 L 218.6 -75.9 L 218.6 -75.9 Q 216.8 -75.1 214.9 -74.8 L 214.9 -74.8 L 214.9 -74.8 Q 214.2 -69.9 214.2 -61.1 L 214.2 -61.1 L 214.2 -61.1 Q 214.2 -52.3 214.9 -47.4 L 214.9 -47.4 L 214.9 -47.4 Q 216.1 -47.2 219.3 -46.5 L 219.3 -46.5 L 219.1 -45 L 219.1 -45 Q 216.2 -45.5 211.7 -45.5 L 211.7 -45.5 L 211.7 -45.5 Q 207.2 -45.5 204.8 -45 L 204.8 -45 L 204.6 -46.6 L 204.6 -46.6 Q 206.6 -47.2 209.2 -47.5 L 209.2 -47.5 L 209.2 -47.5 Q 209.5 -51 209.7 -57.2 L 209.7 -57.2 L 209.7 -57.2 Q 206.9 -57.5 204.1 -57.5 L 204.1 -57.5 L 204.1 -57.5 Q 201.3 -57.5 199.2 -57.2 L 199.2 -57.2 L 199.2 -57.2 Q 198 -52.3 198 -50.4 L 198 -50.4 L 198 -50.4 Q 198 -47.4 200.1 -46.2 L 200.1 -46.2 L 199.8 -45.2 L 199.8 -45.2 Q 198.4 -45.5 194.6 -45.5 L 194.6 -45.5 L 194.6 -45.5 Q 190.8 -45.5 188.5 -45 L 188.5 -45 L 188.3 -46.6 L 188.3 -46.6 Q 189.7 -47.1 192.3 -47.5 L 192.3 -47.5 L 200.1 -74.9 L 200.1 -74.9 Q 197.4 -75.3 195.4 -75.9 L 195.4 -75.9 Z M 203.2 -74.4 L 199.6 -60 L 199.6 -60 Q 202 -59.7 204.8 -59.7 L 204.8 -59.7 L 204.8 -59.7 Q 207.7 -59.7 209.7 -60 L 209.7 -60 L 209.7 -60 Q 209.7 -71.1 209.2 -74.4 L 209.2 -74.4 L 209.2 -74.4 Q 207.2 -74.5 206.2 -74.5 L 206.2 -74.5 L 206.2 -74.5 Q 205.2 -74.5 203.2 -74.4 L 203.2 -74.4 Z M 246.1 -46 L 245.8 -44.8 L 245.8 -44.8 Q 241.9 -45.5 235.2 -45.5 L 235.2 -45.5 L 235.2 -45.5 Q 228.5 -45.5 224 -44.9 L 224 -44.9 L 223.8 -46.4 L 223.8 -46.4 Q 225.5 -47.1 227.7 -47.5 L 227.7 -47.5 L 227.7 -47.5 Q 228.3 -51.1 228.3 -59.7 L 228.3 -59.7 L 228.3 -62.5 L 228.3 -62.5 Q 228.3 -70 227.7 -74.8 L 227.7 -74.8 L 227.7 -74.8 Q 225.7 -75.1 223.9 -75.7 L 223.9 -75.7 L 224.1 -77.2 L 224.1 -77.2 Q 227.2 -76.8 231.3 -76.8 L 231.3 -76.8 L 231.3 -76.8 Q 235.5 -76.8 238.4 -77.2 L 238.4 -77.2 L 238.6 -75.7 L 238.6 -75.7 Q 235.9 -75.1 233.2 -74.8 L 233.2 -74.8 L 233.2 -74.8 Q 232.8 -71.5 232.8 -61.4 L 232.8 -61.4 L 232.8 -61.4 Q 232.8 -51.3 233.2 -48 L 233.2 -48 L 233.2 -48 Q 234.7 -47.7 237.3 -47.7 L 237.3 -47.7 L 237.3 -47.7 Q 240 -47.7 242.1 -48.7 L 242.1 -48.7 L 242.1 -48.7 Q 242.9 -50.8 242.9 -53.5 L 242.9 -53.5 L 244.4 -53.5 L 244.4 -53.5 Q 244.6 -48.9 246.1 -46 L 246.1 -46 Z M 270.5 -46 L 270.2 -44.8 L 270.2 -44.8 Q 266.3 -45.5 259.6 -45.5 L 259.6 -45.5 L 259.6 -45.5 Q 252.9 -45.5 248.4 -44.9 L 248.4 -44.9 L 248.2 -46.4 L 248.2 -46.4 Q 249.9 -47.1 252.1 -47.5 L 252.1 -47.5 L 252.1 -47.5 Q 252.7 -51.1 252.7 -59.7 L 252.7 -59.7 L 252.7 -62.5 L 252.7 -62.5 Q 252.7 -70 252.1 -74.8 L 252.1 -74.8 L 252.1 -74.8 Q 250.1 -75.1 248.3 -75.7 L 248.3 -75.7 L 248.5 -77.2 L 248.5 -77.2 Q 251.6 -76.8 255.7 -76.8 L 255.7 -76.8 L 255.7 -76.8 Q 259.9 -76.8 262.8 -77.2 L 262.8 -77.2 L 263 -75.7 L 263 -75.7 Q 260.3 -75.1 257.7 -74.8 L 257.7 -74.8 L 257.7 -74.8 Q 257.2 -71.5 257.2 -61.4 L 257.2 -61.4 L 257.2 -61.4 Q 257.2 -51.3 257.7 -48 L 257.7 -48 L 257.7 -48 Q 259.1 -47.7 261.7 -47.7 L 261.7 -47.7 L 261.7 -47.7 Q 264.4 -47.7 266.5 -48.7 L 266.5 -48.7 L 266.5 -48.7 Q 267.3 -50.8 267.3 -53.5 L 267.3 -53.5 L 268.8 -53.5 L 268.8 -53.5 Q 269.1 -48.9 270.5 -46 L 270.5 -46 Z M 277.9 -60.3 L 277.9 -60.3 Q 278.1 -55 279.9 -52 L 279.9 -52 L 279.9 -52 Q 281.7 -49 286 -49 L 286 -49 L 286 -49 Q 290.4 -49 294 -52.6 L 294 -52.6 L 294.9 -51.8 L 294.9 -51.8 Q 290.8 -46.7 285.2 -44.8 L 285.2 -44.8 L 285.2 -44.8 Q 279.4 -44.8 276.1 -48.5 L 276.1 -48.5 L 276.1 -48.5 Q 272.8 -52.2 272.8 -58.4 L 272.8 -58.4 L 272.8 -58.4 Q 272.8 -64.7 276.7 -70.2 L 276.7 -70.2 L 276.7 -70.2 Q 280.6 -75.7 286.6 -77.5 L 286.6 -77.5 L 286.6 -77.5 Q 291 -77.5 296.5 -76.6 L 296.5 -76.6 L 296.5 -75.3 L 296.5 -75.3 Q 295.3 -75.3 294.3 -74.8 L 294.3 -74.8 L 294.3 -74.8 Q 293.2 -72.1 292.8 -68.4 L 292.8 -68.4 L 291.3 -68.4 L 291.3 -68.4 Q 290.8 -70.5 290.8 -72.6 L 290.8 -72.6 L 290.8 -72.6 Q 288.6 -73.8 285.4 -73.8 L 285.4 -73.8 L 285.4 -73.8 Q 282.3 -73.8 280.3 -72.1 L 280.3 -72.1 L 280.3 -72.1 Q 278.2 -68.4 277.9 -63.2 L 277.9 -63.2 L 277.9 -63.2 Q 280.5 -62.8 283.3 -62.8 L 283.3 -62.8 L 283.3 -62.8 Q 288.3 -62.8 289.3 -64.9 L 289.3 -64.9 L 290.6 -64.7 L 290.6 -64.7 Q 290.1 -62.9 290.1 -61.2 L 290.1 -61.2 L 290.1 -61.2 Q 290.1 -59.4 290.5 -56.9 L 290.5 -56.9 L 289 -56.7 L 289 -56.7 Q 288.4 -58.5 288.1 -60.4 L 288.1 -60.4 L 288.1 -60.4 Q 285.7 -60.6 283.3 -60.6 L 283.3 -60.6 L 283.3 -60.6 Q 280.9 -60.6 277.9 -60.3 L 277.9 -60.3 Z M 299.5 -75.4 L 299.5 -76.6 L 313.3 -77.1 L 313.3 -77.1 Q 318.7 -77.1 321.4 -75.5 L 321.4 -75.5 L 321.4 -75.5 Q 324.1 -73.9 324.1 -69.7 L 324.1 -69.7 L 324.1 -69.7 Q 324.1 -66.8 322.4 -64.6 L 322.4 -64.6 L 322.4 -64.6 Q 320.6 -62.4 317.7 -61.3 L 317.7 -61.3 L 324.4 -47.5 L 324.4 -47.5 Q 326.5 -47.2 328.3 -46.7 L 328.3 -46.7 L 328 -45.1 L 328 -45.1 Q 325.5 -45.5 322.4 -45.5 L 322.4 -45.5 L 322.4 -45.5 Q 319.2 -45.5 317.4 -45.2 L 317.4 -45.2 L 317.2 -46.2 L 317.2 -46.2 Q 318 -46.9 318 -48.7 L 318 -48.7 L 318 -48.7 Q 318 -52.4 313.8 -60.5 L 313.8 -60.5 L 313.8 -60.5 Q 312.5 -60.7 310.8 -60.7 L 310.8 -60.7 L 310.9 -62.5 L 311.5 -62.5 L 311.5 -62.5 Q 318.6 -62.5 318.6 -69 L 318.6 -69 L 318.6 -69 Q 318.6 -75 312.6 -75 L 312.6 -75 L 312.6 -75 Q 310.5 -75 308.9 -74.3 L 308.9 -74.3 L 308.9 -74.3 Q 308.5 -70.3 308.5 -60.7 L 308.5 -60.7 L 308.5 -60.7 Q 308.5 -51.1 309 -47.5 L 309 -47.5 L 309 -47.5 Q 311.7 -47.2 313.9 -46.6 L 313.9 -46.6 L 313.8 -45.1 L 313.8 -45.1 Q 310.6 -45.5 306.8 -45.5 L 306.8 -45.5 L 306.8 -45.5 Q 302.9 -45.5 299.8 -45 L 299.8 -45 L 299.6 -46.6 L 299.6 -46.6 Q 301.3 -47.1 303.4 -47.5 L 303.4 -47.5 L 303.4 -47.5 Q 304 -52 304 -61.5 L 304 -61.5 L 304 -61.5 Q 304 -71 303.4 -74.7 L 303.4 -74.7 L 303.4 -74.7 Q 301.1 -75.4 299.5 -75.4 L 299.5 -75.4 Z M 348.7 -74.7 L 348.7 -74.7 L 348.7 -74.7 Q 348.7 -75.7 347.1 -76 L 347.1 -76 L 347.3 -77.1 L 347.3 -77.1 Q 349.1 -76.8 352 -76.8 L 352 -76.8 L 352 -76.8 Q 354.9 -76.8 358.4 -77.2 L 358.4 -77.2 L 358.6 -75.7 L 358.6 -75.7 Q 357.1 -75.1 354.7 -74.8 L 354.7 -74.8 L 344.7 -59.8 L 344.7 -59.8 Q 344.7 -52 345.3 -47.5 L 345.3 -47.5 L 345.3 -47.5 Q 348 -47.2 350.2 -46.6 L 350.2 -46.6 L 350.1 -45.1 L 350.1 -45.1 Q 346.9 -45.5 342.9 -45.5 L 342.9 -45.5 L 342.9 -45.5 Q 338.8 -45.5 335.8 -45 L 335.8 -45 L 335.5 -46.6 L 335.5 -46.6 Q 336.7 -46.9 339.6 -47.5 L 339.6 -47.5 L 339.6 -47.5 Q 340.2 -50.7 340.2 -57.3 L 340.2 -57.3 L 340.2 -58.5 L 340.2 -58.5 Q 333.2 -72.6 331.3 -74.8 L 331.3 -74.8 L 331.3 -74.8 Q 329.7 -75 327.6 -75.7 L 327.6 -75.7 L 327.9 -77.2 L 327.9 -77.2 Q 330.3 -76.8 334.8 -76.8 L 334.8 -76.8 L 334.8 -76.8 Q 339.3 -76.8 342.1 -77.2 L 342.1 -77.2 L 342.4 -75.7 L 342.4 -75.7 Q 339.6 -75.1 337.6 -74.8 L 337.6 -74.8 L 337.6 -74.8 Q 339.7 -68.6 343.3 -61.7 L 343.3 -61.7 L 343.3 -61.7 Q 348.7 -72.1 348.7 -74.7 Z" fill="url(#editing-gradient-gradient)"></path></g></g><style>text {
  font-size: 64px;
  font-family: Arial Black;
  dominant-baseline: central;
  text-anchor: middle;
}</style></svg>